<?xml version="1.0" encoding="utf-8"?>
<!-- Generator: Adobe Illustrator 22.1.0, SVG Export Plug-In . SVG Version: 6.00 Build 0)  -->
<svg version="1.1" id="Capa_1" xmlns="http://www.w3.org/2000/svg" xmlns:xlink="http://www.w3.org/1999/xlink" x="0px" y="0px"
	 viewBox="0 0 500 311" style="enable-background:new 0 0 500 311;" xml:space="preserve">
<style type="text/css">
	.st0{fill:#C2A780;}
	.st1{fill:#2C2C2D;}
</style>
<g>
	<g>
		<g>
			<path class="st0" d="M350.6,59.3c-0.5,0-1-0.2-1.3-0.6c-0.3-0.3-0.5-0.8-0.5-1.2c0-0.5,0.2-1,0.6-1.3l16-14.6
				c0.7-0.7,1.9-0.6,2.5,0.1c0.3,0.3,0.5,0.8,0.5,1.2c0,0.5-0.2,1-0.6,1.3l-16,14.6C351.5,59.2,351,59.3,350.6,59.3z"/>
		</g>
	</g>
	<g>
		<g>
			<path class="st0" d="M321.9,85.2c-0.5,0-1-0.2-1.3-0.6c-0.3-0.3-0.5-0.8-0.5-1.2c0-0.5,0.2-1,0.6-1.3l24.6-21.8
				c0.7-0.7,1.9-0.6,2.5,0.2c0.3,0.3,0.5,0.8,0.5,1.2c0,0.5-0.2,1-0.6,1.3l-24.6,21.8C322.8,85.1,322.3,85.2,321.9,85.2z"/>
		</g>
	</g>
	<g>
		<g>
			<path class="st0" d="M294.7,51.5c-0.2,0-0.5,0-0.7-0.1c-0.7-0.3-1.1-1-1.1-1.7c0-0.2,0-0.5,0.1-0.7l3.7-8.9
				c0.4-0.9,1.4-1.3,2.3-1c0.7,0.3,1.1,1,1.1,1.7c0,0.2,0,0.5-0.1,0.7l-3.7,8.9C296.1,51.1,295.4,51.5,294.7,51.5z"/>
		</g>
	</g>
	<g>
		<g>
			<path class="st0" d="M216.6,83.9c-0.7,0-1.3-0.4-1.6-1l-13-28.3c-0.1-0.2-0.2-0.5-0.2-0.7c0-0.7,0.4-1.3,1-1.6
				c0.9-0.4,2,0,2.4,0.9l13,28.3c0.1,0.2,0.2,0.5,0.2,0.7c0,0.7-0.4,1.3-1,1.6C217.1,83.8,216.9,83.9,216.6,83.9z"/>
		</g>
	</g>
	<g>
		<g>
			<path class="st0" d="M201.7,51.5c-0.7,0-1.4-0.4-1.6-1.1l-3.7-8.9c-0.1-0.2-0.1-0.5-0.1-0.7c0-0.7,0.4-1.4,1.1-1.7
				c0.9-0.4,2,0,2.3,1l3.7,8.9c0.1,0.2,0.1,0.5,0.1,0.7c0,0.7-0.4,1.4-1.1,1.7C202.2,51.5,201.9,51.5,201.7,51.5z"/>
		</g>
	</g>
	<g>
		<g>
			<path class="st0" d="M193.7,78.3c-0.5,0-1-0.2-1.4-0.7l-11.5-14.5c-0.3-0.3-0.4-0.7-0.4-1.1c0-0.5,0.2-1,0.7-1.4
				c0.8-0.6,1.9-0.5,2.5,0.3l11.5,14.5c0.3,0.3,0.4,0.7,0.4,1.1c0,0.5-0.2,1-0.7,1.4C194.5,78.2,194.1,78.3,193.7,78.3z"/>
		</g>
	</g>
	<g>
		<g>
			<path class="st0" d="M174.5,85.2c-0.4,0-0.8-0.1-1.2-0.4L148.7,63c-0.4-0.4-0.6-0.8-0.6-1.3c0-0.4,0.1-0.8,0.4-1.2
				c0.7-0.7,1.8-0.8,2.5-0.2l24.6,21.8c0.4,0.4,0.6,0.8,0.6,1.3c0,0.4-0.1,0.8-0.4,1.2C175.5,85,175,85.2,174.5,85.2z"/>
		</g>
	</g>
	<g>
		<g>
			<path class="st0" d="M145.8,59.3c-0.4,0-0.9-0.2-1.2-0.5l-16-14.6c-0.4-0.4-0.6-0.8-0.6-1.3c0-0.4,0.2-0.9,0.5-1.2
				c0.7-0.7,1.8-0.8,2.5-0.1l16,14.6c0.4,0.4,0.6,0.8,0.6,1.3c0,0.4-0.2,0.9-0.5,1.2C146.7,59.1,146.3,59.3,145.8,59.3z"/>
		</g>
	</g>
	<g>
		<g>
			<path class="st0" d="M224.8,51.8c-0.8,0-1.6-0.6-1.8-1.4l-1.5-7.5c0-0.1,0-0.2,0-0.3c0-0.8,0.6-1.6,1.4-1.8
				c1-0.2,1.9,0.4,2.1,1.4l1.5,7.5c0,0.1,0,0.2,0,0.3c0,0.8-0.6,1.6-1.4,1.8C225,51.8,224.9,51.8,224.8,51.8z"/>
		</g>
	</g>
	<g>
		<g>
			<path class="st0" d="M230.8,78.7c-0.8,0-1.6-0.6-1.7-1.4l-4.7-21.8c0-0.1,0-0.3,0-0.4c0-0.8,0.6-1.6,1.4-1.7
				c1-0.2,1.9,0.4,2.1,1.4l4.7,21.8c0,0.1,0,0.3,0,0.4c0,0.8-0.6,1.6-1.4,1.7C231,78.7,230.9,78.7,230.8,78.7z"/>
		</g>
	</g>
	<g>
		<g>
			<path class="st0" d="M248.3,77.4c-1,0-1.8-0.8-1.8-1.8V40.2c0-1,0.8-1.8,1.8-1.8c1,0,1.8,0.8,1.8,1.8v35.4
				C250.1,76.6,249.3,77.4,248.3,77.4z"/>
		</g>
	</g>
	<g>
		<g>
			<path class="st0" d="M248.3,35.4c-1,0-1.8-0.8-1.8-1.8V11.2c0-1,0.8-1.8,1.8-1.8c1,0,1.8,0.8,1.8,1.8v22.4
				C250.1,34.6,249.3,35.4,248.3,35.4z"/>
		</g>
	</g>
	<g>
		<g>
			<path class="st0" d="M248.1,49.7c-1.1,0-2-0.9-2-2v-6.5c0-1.1,0.9-2,2-2c1.1,0,2,0.9,2,2v6.5C250.1,48.8,249.2,49.7,248.1,49.7z"
				/>
		</g>
	</g>
	<g>
		<g>
			<path class="st0" d="M265.6,78.7c-0.1,0-0.3,0-0.4,0c-0.8-0.2-1.4-0.9-1.4-1.7c0-0.1,0-0.3,0-0.4l4.7-21.8c0.2-1,1.2-1.6,2.1-1.4
				c0.8,0.2,1.4,0.9,1.4,1.7c0,0.1,0,0.3,0,0.4l-4.7,21.8C267.2,78.2,266.5,78.7,265.6,78.7z"/>
		</g>
	</g>
	<g>
		<g>
			<path class="st0" d="M271.6,51.8c-0.1,0-0.2,0-0.4,0c-0.9-0.2-1.4-0.9-1.4-1.8c0-0.1,0-0.2,0-0.3l1.5-7.5c0.2-1,1.1-1.6,2.1-1.4
				c0.9,0.2,1.4,0.9,1.4,1.8c0,0.1,0,0.2,0,0.3l-1.5,7.5C273.2,51.3,272.4,51.8,271.6,51.8z"/>
		</g>
	</g>
	<g>
		<g>
			<path class="st0" d="M279.8,83.9c-0.3,0-0.5-0.1-0.7-0.2c-0.7-0.3-1-0.9-1-1.6c0-0.3,0.1-0.5,0.2-0.7l13-28.3
				c0.4-0.9,1.5-1.3,2.4-0.9c0.7,0.3,1,0.9,1,1.6c0,0.3-0.1,0.5-0.2,0.7l-13,28.3C281.1,83.5,280.5,83.9,279.8,83.9z"/>
		</g>
	</g>
	<g>
		<g>
			<path class="st0" d="M302.7,78.3c-0.4,0-0.8-0.1-1.1-0.4c-0.4-0.4-0.7-0.9-0.7-1.4c0-0.4,0.1-0.8,0.4-1.1l11.5-14.5
				c0.6-0.8,1.7-0.9,2.5-0.3c0.4,0.4,0.7,0.9,0.7,1.4c0,0.4-0.1,0.8-0.4,1.1l-11.5,14.5C303.8,78.1,303.2,78.3,302.7,78.3z"/>
		</g>
		<g>
			<g>
				<path class="st0" d="M197.6,36.5c-0.2,0.4-0.4,0.7-0.8,0.8c-0.5,0.3-1.1,0.2-1.6,0c-0.4-0.2-0.7-0.4-0.8-0.8L186.1,20
					c-0.4-0.9-0.1-2,0.8-2.4c0.5-0.3,1.1-0.2,1.6,0c0.4,0.2,0.7,0.4,0.8,0.8l8.2,16.6C197.8,35.5,197.8,36.1,197.6,36.5z"/>
			</g>
		</g>
	</g>
	<g>
		<g>
			<path class="st0" d="M220.6,38.1c-0.1-0.2-0.2-0.4-0.2-0.6l-7.8-35.2c-0.2-0.8,0.2-1.5,0.8-1.9c0.2-0.1,0.4-0.2,0.6-0.2
				c1-0.2,1.9,0.4,2.1,1.4l7.8,35.2c0.2,0.8-0.2,1.5-0.8,1.9c-0.2,0.1-0.4,0.2-0.6,0.2C221.7,39,220.9,38.7,220.6,38.1z"/>
		</g>
	</g>
	<g>
		<g>
			<path class="st0" d="M272.8,37.5c0-0.2,0-0.4,0-0.6l6.7-35.4c0.1-0.8,0.7-1.3,1.5-1.4c0.2,0,0.4,0,0.6,0c1,0.2,1.6,1.1,1.4,2.1
				l-6.7,35.4c-0.1,0.8-0.7,1.3-1.5,1.4c-0.2,0-0.4,0-0.6,0C273.5,38.8,272.9,38.2,272.8,37.5z"/>
		</g>
	</g>
	<g>
		<g>
			<path class="st0" d="M298.5,37.3c-0.1-0.4-0.1-0.9,0.1-1.3l9.9-19.3c0.2-0.5,0.7-0.8,1.1-0.9c0.4-0.1,0.9-0.1,1.3,0.1
				c0.9,0.4,1.2,1.5,0.8,2.4l-9.9,19.3c-0.2,0.5-0.7,0.8-1.1,0.9c-0.4,0.1-0.9,0.1-1.3-0.1C299,38.2,298.6,37.7,298.5,37.3z"/>
		</g>
	</g>
	<g>
		<g>
			<path class="st0" d="M318,59.4c-0.5,0-1-0.1-1.4-0.4c-0.3-0.3-0.5-0.7-0.6-1.2c0-0.5,0.1-1,0.4-1.4L331,40.2
				c0.7-0.7,1.8-0.8,2.5-0.1c0.3,0.3,0.5,0.7,0.6,1.2c0,0.5-0.1,1-0.4,1.4l-14.5,16.2C318.9,59.1,318.5,59.3,318,59.4z"/>
		</g>
	</g>
	<g>
		<g>
			<path class="st0" d="M178.4,59.2c-0.4,0-0.8-0.2-1.1-0.6l-22.4-24c-0.4-0.4-0.5-0.9-0.5-1.4c0-0.4,0.2-0.8,0.6-1.1
				c0.7-0.7,1.9-0.6,2.5,0.1l22.4,24c0.4,0.4,0.5,0.9,0.5,1.4c0,0.4-0.2,0.8-0.6,1.1C179.4,59,178.9,59.2,178.4,59.2z"/>
		</g>
	</g>
	<g>
		<g>
			<path class="st0" d="M347,251.6c-0.5,0-0.9,0.2-1.2,0.5c-0.3,0.3-0.4,0.6-0.4,1c0,0.4,0.2,0.8,0.5,1.1l15.1,12.2
				c0.7,0.6,1.8,0.5,2.4-0.1c0.3-0.3,0.4-0.6,0.4-1c0-0.4-0.2-0.8-0.5-1.1L348.2,252C347.8,251.7,347.4,251.6,347,251.6z"/>
		</g>
	</g>
	<g>
		<g>
			<path class="st0" d="M320,230c-0.5,0-0.9,0.2-1.3,0.5c-0.3,0.3-0.4,0.6-0.4,1c0,0.4,0.2,0.8,0.6,1.1l23.2,18.2
				c0.7,0.5,1.8,0.5,2.4-0.1c0.3-0.3,0.4-0.6,0.4-1c0-0.4-0.2-0.8-0.6-1.1l-23.2-18.2C320.8,230.1,320.4,230,320,230z"/>
		</g>
	</g>
	<g>
		<g>
			<path class="st0" d="M294.3,258.1c-0.2,0-0.4,0-0.7,0.1c-0.6,0.2-1,0.8-1,1.4c0,0.2,0,0.4,0.1,0.6l3.5,7.4
				c0.4,0.8,1.4,1.1,2.2,0.8c0.6-0.2,1-0.8,1-1.4c0-0.2,0-0.4-0.1-0.6l-3.5-7.4C295.6,258.5,295,258.1,294.3,258.1z"/>
		</g>
	</g>
	<g>
		<g>
			<path class="st0" d="M220.7,231.1c-0.6,0-1.2,0.3-1.5,0.9l-12.3,23.6c-0.1,0.2-0.2,0.4-0.2,0.6c0,0.6,0.4,1.1,1,1.4
				c0.8,0.3,1.8,0,2.2-0.7l12.3-23.6c0.1-0.2,0.2-0.4,0.2-0.6c0-0.6-0.4-1.1-1-1.4C221.2,231.2,220.9,231.1,220.7,231.1z"/>
		</g>
	</g>
	<g>
		<g>
			<path class="st0" d="M206.6,258.1c-0.7,0-1.3,0.3-1.6,0.9l-3.5,7.4c-0.1,0.2-0.1,0.4-0.1,0.6c0,0.6,0.4,1.1,1,1.4
				c0.9,0.3,1.8,0,2.2-0.8l3.5-7.4c0.1-0.2,0.1-0.4,0.1-0.6c0-0.6-0.4-1.1-1-1.4C207.1,258.2,206.9,258.1,206.6,258.1z"/>
		</g>
	</g>
	<g>
		<g>
			<path class="st0" d="M199.1,235.7c-0.5,0-1,0.2-1.3,0.6l-10.8,12.1c-0.2,0.3-0.4,0.6-0.4,0.9c0,0.4,0.2,0.9,0.6,1.2
				c0.7,0.5,1.8,0.4,2.4-0.2l10.8-12.1c0.2-0.3,0.4-0.6,0.4-0.9c0-0.4-0.2-0.9-0.6-1.2C199.8,235.8,199.5,235.7,199.1,235.7z"/>
		</g>
	</g>
	<g>
		<g>
			<path class="st0" d="M181,230c-0.4,0-0.8,0.1-1.1,0.4l-23.2,18.2c-0.4,0.3-0.6,0.7-0.6,1.1c0,0.4,0.1,0.7,0.4,1
				c0.6,0.6,1.7,0.7,2.4,0.1l23.2-18.2c0.4-0.3,0.6-0.7,0.6-1.1c0-0.4-0.1-0.7-0.4-1C181.9,230.2,181.5,230,181,230z"/>
		</g>
	</g>
	<g>
		<g>
			<path class="st0" d="M153.9,251.6c-0.4,0-0.8,0.1-1.1,0.4l-15.1,12.2c-0.4,0.3-0.5,0.7-0.5,1.1c0,0.4,0.1,0.7,0.4,1
				c0.6,0.6,1.7,0.7,2.4,0.1l15.1-12.2c0.4-0.3,0.5-0.7,0.5-1.1c0-0.4-0.1-0.7-0.4-1C154.9,251.7,154.4,251.6,153.9,251.6z"/>
		</g>
	</g>
	<g>
		<g>
			<path class="st0" d="M228.4,257.8c-0.8,0-1.5,0.5-1.7,1.2l-1.4,6.3c0,0.1,0,0.2,0,0.3c0,0.7,0.6,1.3,1.4,1.5
				c0.9,0.2,1.8-0.4,2-1.2l1.4-6.3c0-0.1,0-0.2,0-0.3c0-0.7-0.6-1.3-1.4-1.5C228.7,257.8,228.5,257.8,228.4,257.8z"/>
		</g>
	</g>
	<g>
		<g>
			<path class="st0" d="M234.1,235.4c-0.8,0-1.5,0.5-1.6,1.2l-4.4,18.2c0,0.1,0,0.2,0,0.3c0,0.7,0.5,1.3,1.3,1.5
				c0.9,0.2,1.8-0.3,2-1.1l4.4-18.2c0-0.1,0-0.2,0-0.3c0-0.7-0.5-1.3-1.3-1.5C234.3,235.4,234.2,235.4,234.1,235.4z"/>
		</g>
	</g>
	<g>
		<g>
			<path class="st0" d="M250.6,236.5c-0.9,0-1.7,0.7-1.7,1.5v29.5c0,0.8,0.8,1.5,1.7,1.5c0.9,0,1.7-0.7,1.7-1.5V238
				C252.3,237.2,251.5,236.5,250.6,236.5z"/>
		</g>
	</g>
	<g>
		<g>
			<path class="st0" d="M250.6,271.5c-0.9,0-1.7,0.7-1.7,1.5v18.7c0,0.8,0.8,1.5,1.7,1.5c0.9,0,1.7-0.7,1.7-1.5V273
				C252.3,272.2,251.5,271.5,250.6,271.5z"/>
		</g>
	</g>
	<g>
		<g>
			<path class="st0" d="M266.9,235.4c-0.1,0-0.2,0-0.4,0c-0.8,0.2-1.3,0.8-1.3,1.5c0,0.1,0,0.2,0,0.3l4.4,18.2
				c0.2,0.8,1.1,1.3,2,1.1c0.8-0.2,1.3-0.8,1.3-1.5c0-0.1,0-0.2,0-0.3l-4.4-18.2C268.4,235.9,267.7,235.4,266.9,235.4z"/>
		</g>
	</g>
	<g>
		<g>
			<path class="st0" d="M272.5,257.8c-0.1,0-0.2,0-0.3,0c-0.8,0.1-1.4,0.8-1.4,1.5c0,0.1,0,0.2,0,0.3l1.4,6.3c0.2,0.8,1.1,1.3,2,1.2
				c0.8-0.1,1.4-0.8,1.4-1.5c0-0.1,0-0.2,0-0.3l-1.4-6.3C274,258.3,273.3,257.8,272.5,257.8z"/>
		</g>
	</g>
	<g>
		<g>
			<path class="st0" d="M280.3,231.1c-0.2,0-0.5,0-0.7,0.1c-0.6,0.3-1,0.8-1,1.4c0,0.2,0,0.4,0.2,0.6l12.3,23.6
				c0.4,0.7,1.4,1.1,2.2,0.7c0.6-0.3,1-0.8,1-1.4c0-0.2,0-0.4-0.2-0.6L281.8,232C281.5,231.4,280.9,231.1,280.3,231.1z"/>
		</g>
	</g>
	<g>
		<g>
			<path class="st0" d="M301.9,235.7c-0.4,0-0.7,0.1-1,0.3c-0.4,0.3-0.6,0.7-0.6,1.2c0,0.3,0.1,0.7,0.4,0.9l10.8,12.1
				c0.6,0.6,1.6,0.8,2.4,0.2c0.4-0.3,0.6-0.7,0.6-1.2c0-0.3-0.1-0.7-0.4-0.9l-10.8-12.1C302.9,235.9,302.4,235.7,301.9,235.7z"/>
		</g>
		<g>
			<g>
				<path class="st0" d="M202.8,270.6c-0.2-0.3-0.4-0.5-0.8-0.7c-0.5-0.2-1-0.2-1.5,0c-0.3,0.1-0.6,0.4-0.8,0.7l-7.8,13.8
					c-0.4,0.7-0.1,1.6,0.8,2c0.5,0.2,1,0.2,1.5,0c0.3-0.1,0.6-0.4,0.8-0.7l7.8-13.8C203,271.5,203,271,202.8,270.6z"/>
			</g>
		</g>
	</g>
	<g>
		<g>
			<path class="st0" d="M224.4,269.3c-0.1,0.1-0.2,0.3-0.2,0.5l-7.4,29.4c-0.2,0.6,0.2,1.3,0.7,1.6c0.2,0.1,0.3,0.2,0.5,0.2
				c0.9,0.2,1.8-0.3,2-1.1l7.4-29.4c0.2-0.6-0.2-1.3-0.7-1.6c-0.2-0.1-0.3-0.2-0.5-0.2C225.5,268.5,224.8,268.8,224.4,269.3z"/>
		</g>
	</g>
	<g>
		<g>
			<path class="st0" d="M273.7,269.8c0,0.2,0,0.3,0,0.5l6.3,29.6c0.1,0.6,0.7,1.1,1.4,1.2c0.2,0,0.4,0,0.6,0
				c0.9-0.2,1.5-0.9,1.3-1.7l-6.3-29.6c-0.1-0.6-0.7-1.1-1.4-1.2c-0.2,0-0.4,0-0.6,0C274.3,268.7,273.8,269.2,273.7,269.8z"/>
		</g>
	</g>
	<g>
		<g>
			<path class="st0" d="M297.9,270c-0.1,0.3-0.1,0.7,0.1,1.1l9.3,16.1c0.2,0.4,0.6,0.7,1.1,0.8c0.4,0.1,0.8,0.1,1.2-0.1
				c0.8-0.4,1.2-1.3,0.7-2l-9.3-16.1c-0.2-0.4-0.6-0.7-1.1-0.8c-0.4-0.1-0.8-0.1-1.2,0.1C298.3,269.2,298,269.6,297.9,270z"/>
		</g>
	</g>
	<g>
		<g>
			<path class="st0" d="M316.3,251.6c-0.5,0-0.9,0.1-1.3,0.4c-0.3,0.3-0.5,0.6-0.6,1c0,0.4,0.1,0.8,0.4,1.1l13.7,13.5
				c0.6,0.6,1.7,0.7,2.4,0.1c0.3-0.3,0.5-0.6,0.6-1c0-0.4-0.1-0.8-0.4-1.1l-13.7-13.5C317.1,251.8,316.7,251.6,316.3,251.6z"/>
		</g>
	</g>
	<g>
		<g>
			<path class="st0" d="M184.8,251.3c-0.4,0-0.8,0.2-1.1,0.5l-21.2,20.1c-0.3,0.3-0.5,0.7-0.5,1.2c0,0.4,0.2,0.7,0.5,0.9
				c0.7,0.6,1.7,0.5,2.4-0.1l21.2-20.1c0.3-0.3,0.5-0.7,0.5-1.2c0-0.4-0.2-0.7-0.5-0.9C185.7,251.4,185.2,251.2,184.8,251.3z"/>
		</g>
	</g>
	<g>
		<path class="st0" d="M85.1,167.9h6.6v19.7h5.8v-19.7h6.6v45.9h-6.6v-19.7h-5.8v19.7h-6.6V167.9z"/>
		<path class="st0" d="M128.7,204.9c0,6.4-3.2,9.6-9.5,9.7c-6.3,0-9.5-3.2-9.5-9.7v-28.1c0-6.4,3.2-9.6,9.5-9.6
			c6.3,0,9.5,3.2,9.5,9.6V204.9z M122.1,176.8c0-2.1-1-3.1-2.9-3.1h0c-1.9,0-2.9,1-2.9,3.1v28.1c0,2.1,1,3.1,2.9,3.1
			c1.9,0,2.9-1,2.9-3.1V176.8z"/>
		<path class="st0" d="M148.7,199.3l7.7-31.4h6.6v45.9h-6.3V188l-5.7,25.7h-4.5l-5.8-25.7v25.7h-6.4v-45.9h6.6L148.7,199.3z"/>
		<path class="st0" d="M169.1,167.9h10.2c5.9,0,8.8,3.2,8.8,9.7v6.9c0,3-1.2,5.1-3.6,6.4c2.4,1.2,3.6,3.4,3.6,6.4v6.9
			c0,6.4-3.1,9.6-9.2,9.6h-9.8V167.9z M175.7,174.4v13.1h2.1c0.9,0,1.6-0.1,1.9-0.2c1.2-0.5,1.8-1.5,1.8-2.9v-6.9
			c0-2.1-1-3.1-2.9-3.1H175.7z M175.7,194.1v13.1h2.9c1.9,0,2.9-1,2.9-3.1v-6.9c0-1.5-0.6-2.4-1.8-2.9c-0.3-0.1-1-0.2-1.9-0.2H175.7
			z"/>
		<path class="st0" d="M193.5,167.9h9.6c5.9,0,8.8,3.2,8.8,9.7v6.9c0,4-1.7,6.7-5.2,8l7.4,21.4h-7.2l-6-20.2l-0.8,0.1v20.1h-6.6
			V167.9z M200.1,174.4v13.1h1.5c0.9,0,1.6-0.1,1.9-0.2c1.2-0.5,1.8-1.5,1.8-2.9v-6.9c0-2.1-1-3.1-2.9-3.1H200.1z"/>
		<path class="st0" d="M217.9,167.9h17.2v6.5h-10.5v13.1h9.1v6.5h-9.1v13.1h10.5v6.5h-17.2V167.9z"/>
		<path class="st0" d="M239.5,176.8c0-6.4,3.2-9.6,9.5-9.6c6.3,0,9.5,3.2,9.5,9.6v6.2h-6.6v-6.2c0-2.1-1-3.1-2.9-3.1h0
			c-1.9,0-2.9,1-2.9,3.1v4.2c0,2,2.1,4.5,6.2,7.5c4.1,2.9,6.2,6.5,6.2,10.6v5.8c0,6.4-3.2,9.7-9.5,9.7c-6.3,0-9.5-3.2-9.5-9.7v-6.2
			h6.6v6.2c0,2.1,1,3.1,2.9,3.1c1.9,0,2.9-1,2.9-3.1v-5.2c0-2.2-2.1-4.8-6.2-7.8c-4.1-2.9-6.2-6.5-6.2-10.8V176.8z"/>
		<path class="st0" d="M276.2,167.9h6.6v45.9h-6.6V167.9z"/>
		<path class="st0" d="M289,167.9h6.6l6.3,26.6v-26.6h6.1v45.9h-6.6l-6-25.8v25.8H289V167.9z"/>
		<path class="st0" d="M331.2,167.9v6.5H325v39.4h-6.6v-39.4h-6.2v-6.5H331.2z"/>
		<path class="st0" d="M335.4,167.9h9.6c5.9,0,8.8,3.2,8.8,9.7v6.9c0,4-1.7,6.7-5.2,8l7.4,21.4h-7.2l-6-20.2l-0.8,0.1v20.1h-6.6
			V167.9z M342,174.4v13.1h1.5c0.9,0,1.6-0.1,1.9-0.2c1.2-0.5,1.8-1.5,1.8-2.9v-6.9c0-2.1-1-3.1-2.9-3.1H342z"/>
		<path class="st0" d="M359.8,167.9H377v6.5h-10.5v13.1h9.1v6.5h-9.1v13.1H377v6.5h-17.2V167.9z M368.2,166.1h-3.7l3.3-5.9h5.2
			L368.2,166.1z"/>
		<path class="st0" d="M381.9,167.9h9.6c5.9,0,8.8,3.2,8.8,9.7v6.9c0,4.7-2.1,7.8-6.3,9.2c-1,0.3-2.5,0.5-4.4,0.5h-1.1v19.7h-6.6
			V167.9z M388.5,174.4v13.1h1.5c0.9,0,1.6-0.1,1.9-0.2c1.2-0.5,1.8-1.5,1.8-2.9v-6.9c0-2.1-1-3.1-2.9-3.1H388.5z"/>
		<path class="st0" d="M405.4,167.9h6.6v45.9h-6.6V167.9z"/>
		<path class="st0" d="M418.2,167.9h10.2c5.9,0,8.8,3.2,8.8,9.7v26.6c0,6.4-3.1,9.6-9.2,9.6h-9.8V167.9z M424.8,174.4v32.8h2.9
			c1.9,0,2.9-1,2.9-3.1v-26.6c0-2.1-1-3.1-2.9-3.1H424.8z"/>
		<path class="st0" d="M461.4,204.9c0,6.4-3.2,9.6-9.5,9.7c-6.3,0-9.5-3.2-9.5-9.7v-28.1c0-6.4,3.2-9.6,9.5-9.6
			c6.3,0,9.5,3.2,9.5,9.6V204.9z M454.8,176.8c0-2.1-1-3.1-2.9-3.1h0c-1.9,0-2.9,1-2.9,3.1v28.1c0,2.1,1,3.1,2.9,3.1
			c1.9,0,2.9-1,2.9-3.1V176.8z"/>
		<path class="st0" d="M466.5,176.8c0-6.4,3.2-9.6,9.5-9.6c6.3,0,9.5,3.2,9.5,9.6v6.2h-6.6v-6.2c0-2.1-1-3.1-2.9-3.1h0
			c-1.9,0-2.9,1-2.9,3.1v4.2c0,2,2.1,4.5,6.2,7.5c4.1,2.9,6.2,6.5,6.2,10.6v5.8c0,6.4-3.2,9.7-9.5,9.7c-6.3,0-9.5-3.2-9.5-9.7v-6.2
			h6.6v6.2c0,2.1,1,3.1,2.9,3.1c1.9,0,2.9-1,2.9-3.1v-5.2c0-2.2-2.1-4.8-6.2-7.8c-4.1-2.9-6.2-6.5-6.2-10.8V176.8z"/>
	</g>
	<g>
		<path class="st0" d="M26.1,144.4c0,8.2-4,12.3-12.1,12.3c-8.1,0-12.1-4.1-12.1-12.3v-35.7c0-8.2,4-12.3,12.1-12.3
			c8.1,0,12.1,4.1,12.1,12.3v7.9h-8.4v-7.9c0-2.6-1.2-3.9-3.7-4H14c-2.4,0-3.6,1.3-3.6,4v35.7c0,2.6,1.2,4,3.7,4
			c2.5,0,3.7-1.3,3.7-4v-7.9h8.4V144.4z"/>
		<path class="st0" d="M56.5,144.4c0,8.2-4,12.3-12.1,12.3c-8.1,0-12.1-4.1-12.1-12.3v-35.7c0-8.2,4-12.3,12.1-12.3
			c8.1,0,12.1,4.1,12.1,12.3V144.4z M48.1,108.7c0-2.6-1.2-3.9-3.7-4h-0.1c-2.4,0-3.6,1.3-3.6,4v35.7c0,2.6,1.2,4,3.7,4
			c2.5,0,3.7-1.3,3.7-4V108.7z"/>
		<path class="st0" d="M63.7,97.4h12.3c7.5,0,11.2,4.1,11.2,12.3v8.8c0,5.1-2.2,8.5-6.6,10.1l9.5,27.2h-9.2l-7.6-25.7l-1.1,0.1v25.5
			h-8.4V97.4z M72.1,105.7v16.7H74c1.2,0,2-0.1,2.4-0.2c1.5-0.6,2.3-1.9,2.3-3.7v-8.8c0-2.7-1.2-4-3.7-4H72.1z"/>
		<path class="st0" d="M115.9,97.4v8.3H108v50.1h-8.4v-50.1h-7.9v-8.3H115.9z"/>
		<path class="st0" d="M121.2,97.4h21.8v8.3h-13.4v16.7h11.5v8.3h-11.5v16.7h13.4v8.3h-21.8V97.4z"/>
		<path class="st0" d="M148.7,108.7c0-8.2,4-12.3,12.1-12.3c8.1,0,12.1,4.1,12.1,12.3v7.9h-8.4v-7.9c0-2.6-1.2-3.9-3.7-4h-0.1
			c-2.4,0-3.6,1.3-3.6,4v5.3c0,2.6,2.6,5.8,7.9,9.6c5.3,3.7,7.9,8.2,7.9,13.5v7.4c0,8.2-4,12.3-12.1,12.3c-8.1,0-12.1-4.1-12.1-12.3
			v-7.9h8.4v7.9c0,2.6,1.2,4,3.7,4c2.4,0,3.7-1.3,3.7-4v-6.7c0-2.8-2.6-6.1-7.9-9.9c-5.3-3.7-7.9-8.3-7.9-13.7V108.7z"/>
		<path class="st0" d="M195.3,97.4h8.4v58.4h-8.4V97.4z"/>
		<path class="st0" d="M230,137.4l9.8-40h8.4v58.4h-8.1V123l-7.2,32.8h-5.7l-7.4-32.8v32.8h-8.2V97.4h8.4L230,137.4z"/>
		<path class="st0" d="M255.9,97.4h12.3c7.5,0,11.2,4.1,11.2,12.3v8.8c0,6-2.7,9.9-8.1,11.7c-1.3,0.4-3.2,0.6-5.6,0.6h-1.4v25h-8.4
			V97.4z M264.3,105.7v16.7h1.9c1.2,0,2-0.1,2.4-0.2c1.5-0.6,2.3-1.9,2.3-3.7v-8.8c0-2.7-1.2-4-3.7-4H264.3z"/>
		<path class="st0" d="M285.6,97.4h21.8v8.3h-13.4v16.7h11.5v8.3h-11.5v16.7h13.4v8.3h-21.8V97.4z"/>
		<path class="st0" d="M337.3,144.4c0,8.2-4,12.3-12.1,12.3c-8.1,0-12.1-4.1-12.1-12.3v-35.7c0-8.2,4-12.3,12.1-12.3
			c8.1,0,12.1,4.1,12.1,12.3v7.9h-8.4v-7.9c0-2.6-1.2-3.9-3.7-4h-0.1c-2.4,0-3.6,1.3-3.6,4v35.7c0,2.6,1.2,4,3.7,4
			c2.5,0,3.7-1.3,3.7-4v-7.9h8.4V144.4z"/>
		<path class="st0" d="M367.7,135.1l2.7,20.7h-8.5l-1.6-12.4h-8.6l-1.7,12.4h-8.5l2.7-20.6l6-37.8h11.5L367.7,135.1z M359.1,135.1
			l-3.2-24.3l-3.2,24.3H359.1z"/>
		<path class="st0" d="M375.5,97.4h13c7.5,0,11.2,4.1,11.2,12.3v8.8c0,3.8-1.5,6.5-4.6,8.1c3.1,1.6,4.6,4.3,4.6,8.1v8.8
			c0,8.2-3.9,12.2-11.8,12.3h-12.4V97.4z M383.9,105.7v16.7h2.6c1.2,0,2-0.1,2.4-0.2c1.5-0.6,2.3-1.9,2.3-3.7v-8.8
			c0-2.7-1.2-4-3.7-4H383.9z M383.9,130.7v16.7h3.7c2.4,0,3.7-1.3,3.7-4v-8.8c0-1.9-0.8-3.1-2.3-3.7c-0.4-0.2-1.2-0.3-2.4-0.3H383.9
			z"/>
		<path class="st0" d="M406.5,155.8V97.4h8.4v50.1h13.4v8.3H406.5z"/>
		<path class="st0" d="M433.4,97.4h21.8v8.3h-13.4v16.7h11.5v8.3h-11.5v16.7h13.4v8.3h-21.8V97.4z"/>
		<path class="st0" d="M460.9,108.7c0-8.2,4-12.3,12.1-12.3c8.1,0,12.1,4.1,12.1,12.3v7.9h-8.4v-7.9c0-2.6-1.2-3.9-3.7-4h-0.1
			c-2.4,0-3.6,1.3-3.6,4v5.3c0,2.6,2.6,5.8,7.9,9.6c5.3,3.7,7.9,8.2,7.9,13.5v7.4c0,8.2-4,12.3-12.1,12.3c-8.1,0-12.1-4.1-12.1-12.3
			v-7.9h8.4v7.9c0,2.6,1.2,4,3.7,4c2.4,0,3.7-1.3,3.7-4v-6.7c0-2.8-2.6-6.1-7.9-9.9c-5.3-3.7-7.9-8.3-7.9-13.7V108.7z"/>
	</g>
	<g>
		<path class="st1" d="M7.4,169.8l0.1-0.5h5.3l-0.7,2.2h0.1c0.2-0.2,0.4-0.5,0.7-0.8c0.3-0.3,0.6-0.6,1-0.9c0.4-0.3,0.8-0.5,1.3-0.7
			c0.5-0.2,1-0.3,1.5-0.3c0.8,0,1.5,0.2,2.2,0.5c0.6,0.3,1.1,0.8,1.5,1.3c0.4,0.5,0.7,1.2,0.9,1.9c0.2,0.7,0.3,1.5,0.3,2.2
			c0,0.9-0.2,1.9-0.7,3c-0.4,1.1-1.1,2.1-1.9,3c-0.8,0.9-1.8,1.7-2.9,2.3c-1.1,0.6-2.3,0.9-3.6,0.9c-0.9,0-1.6-0.3-2.2-0.9
			c-0.6-0.6-1-1.3-1.2-2.3H9l-4.1,11.6h2.8L7.6,193H0l0.1-0.5h2.4l8-22.8H7.4z M9.6,181.4c0.1,0.4,0.3,0.8,0.6,1.1
			c0.3,0.3,0.6,0.6,0.9,0.8c0.4,0.2,0.8,0.3,1.4,0.3c0.6,0,1.2-0.2,1.8-0.6c0.6-0.4,1.1-0.8,1.6-1.4c0.5-0.6,0.9-1.3,1.3-2
			c0.4-0.8,0.7-1.6,1-2.3c0.3-0.8,0.5-1.6,0.7-2.3c0.2-0.8,0.2-1.5,0.2-2.1c0-1-0.2-1.8-0.6-2.5c-0.4-0.7-1.1-1-2-1
			c-0.6,0-1.1,0.1-1.6,0.4c-0.5,0.2-0.9,0.5-1.3,0.9c-0.4,0.4-0.7,0.7-1,1.1s-0.5,0.7-0.7,1l-2.6,7.5C9.4,180.5,9.5,180.9,9.6,181.4
			z"/>
		<path class="st1" d="M35.5,181.1c-0.1,0.5-0.2,1-0.2,1.4c0,0.6,0.3,0.9,0.8,0.9c0.4,0,0.8-0.1,1.2-0.4c0.4-0.3,0.7-0.5,0.9-0.9
			c0.3-0.3,0.5-0.6,0.6-1c0.2-0.3,0.3-0.6,0.4-0.7l0.4,0.2c-0.1,0.2-0.3,0.6-0.5,0.9c-0.2,0.4-0.5,0.7-0.9,1.1
			c-0.4,0.3-0.8,0.6-1.2,0.9c-0.5,0.3-1,0.4-1.6,0.4c-1.5,0-2.2-0.7-2.2-2c0-0.2,0-0.4,0.1-0.8c0.1-0.4,0.2-0.7,0.3-1.1h-0.1
			c-0.3,0.4-0.7,0.8-1.1,1.3c-0.4,0.5-0.9,0.9-1.4,1.3c-0.5,0.4-1.1,0.7-1.7,1c-0.6,0.3-1.3,0.4-2,0.4c-0.5,0-0.9-0.1-1.4-0.3
			s-0.8-0.4-1.2-0.8c-0.3-0.3-0.6-0.8-0.8-1.3c-0.2-0.5-0.3-1.2-0.3-1.9c0-0.9,0.2-1.8,0.5-2.7c0.4-0.9,0.8-1.7,1.4-2.6
			c0.6-0.8,1.2-1.6,2-2.3c0.7-0.7,1.5-1.3,2.3-1.8c0.8-0.5,1.5-0.9,2.3-1.2c0.7-0.3,1.4-0.4,2-0.4c0.7,0,1.2,0.2,1.7,0.6
			c0.5,0.4,0.7,0.9,0.7,1.5h0.1l0.6-1.6h2.3L36,179.4C35.8,180,35.6,180.6,35.5,181.1z M36.3,172.2c0.1-0.3,0.1-0.6,0.1-0.8
			c0-0.2,0-0.4-0.1-0.7c-0.1-0.2-0.2-0.5-0.3-0.7c-0.1-0.2-0.3-0.4-0.6-0.5c-0.2-0.1-0.6-0.2-1-0.2c-0.7,0-1.5,0.2-2.2,0.6
			c-0.7,0.4-1.4,1-2,1.6c-0.6,0.7-1.2,1.4-1.7,2.3c-0.5,0.9-1,1.7-1.3,2.6c-0.4,0.9-0.7,1.7-0.9,2.6s-0.3,1.6-0.3,2.2
			c0,0.7,0.1,1.3,0.4,1.7c0.3,0.4,0.7,0.7,1.4,0.7c0.6,0,1.3-0.2,2-0.6c0.7-0.4,1.3-0.9,1.8-1.4c0.6-0.6,1-1.1,1.4-1.7
			c0.4-0.6,0.7-1,0.8-1.3l1.8-4.9C36,173,36.2,172.5,36.3,172.2z"/>
		<path class="st1" d="M46.2,171.6c0.2-0.6,0.4-1.2,0.5-1.8h-2.9l0.1-0.5h5.2c-0.1,0.5-0.3,1.1-0.5,1.8c-0.2,0.7-0.4,1.4-0.7,2.1
			l0.1,0.1c0.2-0.3,0.5-0.7,0.8-1.2s0.7-0.9,1.1-1.4c0.4-0.4,0.9-0.8,1.4-1.1c0.5-0.3,1.1-0.5,1.6-0.5c0.8,0,1.5,0.2,1.9,0.7
			c0.4,0.5,0.6,1,0.6,1.5c0,0.4-0.1,0.7-0.2,0.9c-0.1,0.2-0.3,0.4-0.5,0.5s-0.4,0.2-0.6,0.3c-0.2,0-0.4,0.1-0.6,0.1
			c-0.3,0-0.6-0.1-0.8-0.2c-0.2-0.2-0.3-0.4-0.3-0.7c0-0.2,0.1-0.4,0.2-0.6c0.1-0.1,0.2-0.2,0.3-0.4c0.1-0.1,0.2-0.2,0.3-0.4
			c0.1-0.1,0.2-0.3,0.2-0.5c0-0.2-0.1-0.4-0.3-0.5c-0.2-0.1-0.4-0.2-0.7-0.2c-0.4,0-0.9,0.2-1.5,0.7c-0.6,0.4-1.1,1-1.7,1.7
			c-0.5,0.7-1.1,1.5-1.6,2.3c-0.5,0.9-0.9,1.7-1.2,2.6l-2.4,6.8H42l3.6-10.3C45.8,172.8,46,172.2,46.2,171.6z"/>
		<path class="st1" d="M67.1,181.1c-0.1,0.5-0.2,1-0.2,1.4c0,0.6,0.3,0.9,0.8,0.9c0.4,0,0.8-0.1,1.2-0.4c0.4-0.3,0.7-0.5,0.9-0.9
			c0.3-0.3,0.5-0.6,0.6-1c0.2-0.3,0.3-0.6,0.4-0.7l0.4,0.2c-0.1,0.2-0.3,0.6-0.5,0.9c-0.2,0.4-0.5,0.7-0.9,1.1s-0.8,0.6-1.2,0.9
			s-1,0.4-1.6,0.4c-1.5,0-2.2-0.7-2.2-2c0-0.2,0-0.4,0.1-0.8c0.1-0.4,0.2-0.7,0.3-1.1h-0.1c-0.3,0.4-0.7,0.8-1.1,1.3
			c-0.4,0.5-0.9,0.9-1.4,1.3c-0.5,0.4-1.1,0.7-1.7,1c-0.6,0.3-1.3,0.4-2,0.4c-0.5,0-0.9-0.1-1.4-0.3s-0.8-0.4-1.2-0.8
			c-0.3-0.3-0.6-0.8-0.8-1.3c-0.2-0.5-0.3-1.2-0.3-1.9c0-0.9,0.2-1.8,0.5-2.7c0.4-0.9,0.8-1.7,1.4-2.6c0.6-0.8,1.2-1.6,2-2.3
			c0.7-0.7,1.5-1.3,2.3-1.8c0.8-0.5,1.5-0.9,2.3-1.2c0.7-0.3,1.4-0.4,2-0.4c0.7,0,1.2,0.2,1.7,0.6c0.5,0.4,0.7,0.9,0.7,1.5h0.1
			l0.6-1.6h2.3l-3.6,10.1C67.4,180,67.3,180.6,67.1,181.1z M67.9,172.2c0.1-0.3,0.1-0.6,0.1-0.8c0-0.2,0-0.4-0.1-0.7
			c-0.1-0.2-0.2-0.5-0.3-0.7c-0.1-0.2-0.3-0.4-0.6-0.5c-0.2-0.1-0.6-0.2-1-0.2c-0.7,0-1.5,0.2-2.2,0.6c-0.7,0.4-1.4,1-2,1.6
			c-0.6,0.7-1.2,1.4-1.7,2.3c-0.5,0.9-1,1.7-1.3,2.6c-0.4,0.9-0.7,1.7-0.9,2.6c-0.2,0.8-0.3,1.6-0.3,2.2c0,0.7,0.1,1.3,0.4,1.7
			c0.3,0.4,0.7,0.7,1.4,0.7c0.6,0,1.3-0.2,2-0.6c0.7-0.4,1.3-0.9,1.8-1.4c0.6-0.6,1-1.1,1.4-1.7c0.4-0.6,0.7-1,0.8-1.3l1.8-4.9
			C67.6,173,67.8,172.5,67.9,172.2z"/>
	</g>
	<g>
		<path class="st1" d="M83.6,169h6.6v19.7H96V169h6.6v45.9H96v-19.7h-5.8v19.7h-6.6V169z"/>
		<path class="st1" d="M127.2,206c0,6.4-3.2,9.6-9.5,9.7c-6.3,0-9.5-3.2-9.5-9.7v-28.1c0-6.4,3.2-9.6,9.5-9.6c6.3,0,9.5,3.2,9.5,9.6
			V206z M120.6,177.9c0-2.1-1-3.1-2.9-3.1h0c-1.9,0-2.9,1-2.9,3.1V206c0,2.1,1,3.1,2.9,3.1c1.9,0,2.9-1,2.9-3.1V177.9z"/>
		<path class="st1" d="M147.2,200.5l7.7-31.4h6.6v45.9h-6.3v-25.7l-5.7,25.7h-4.5l-5.8-25.7v25.7h-6.4V169h6.6L147.2,200.5z"/>
		<path class="st1" d="M167.6,169h10.2c5.9,0,8.8,3.2,8.8,9.7v6.9c0,3-1.2,5.1-3.6,6.4c2.4,1.2,3.6,3.4,3.6,6.4v6.9
			c0,6.4-3.1,9.6-9.2,9.6h-9.8V169z M174.3,175.6v13.1h2.1c0.9,0,1.6-0.1,1.9-0.2c1.2-0.5,1.8-1.5,1.8-2.9v-6.9c0-2.1-1-3.1-2.9-3.1
			H174.3z M174.3,195.2v13.1h2.9c1.9,0,2.9-1,2.9-3.1v-6.9c0-1.5-0.6-2.4-1.8-2.9c-0.3-0.1-1-0.2-1.9-0.2H174.3z"/>
		<path class="st1" d="M192,169h9.6c5.9,0,8.8,3.2,8.8,9.7v6.9c0,4-1.7,6.7-5.2,8l7.4,21.4h-7.2l-6-20.2l-0.8,0.1v20.1H192V169z
			 M198.6,175.6v13.1h1.5c0.9,0,1.6-0.1,1.9-0.2c1.2-0.5,1.8-1.5,1.8-2.9v-6.9c0-2.1-1-3.1-2.9-3.1H198.6z"/>
		<path class="st1" d="M216.4,169h17.2v6.5h-10.5v13.1h9.1v6.5h-9.1v13.1h10.5v6.5h-17.2V169z"/>
		<path class="st1" d="M238.1,177.9c0-6.4,3.2-9.6,9.5-9.6c6.3,0,9.5,3.2,9.5,9.6v6.2h-6.6v-6.2c0-2.1-1-3.1-2.9-3.1h0
			c-1.9,0-2.9,1-2.9,3.1v4.2c0,2,2.1,4.5,6.2,7.5c4.1,2.9,6.2,6.5,6.2,10.6v5.8c0,6.4-3.2,9.7-9.5,9.7c-6.3,0-9.5-3.2-9.5-9.7v-6.2
			h6.6v6.2c0,2.1,1,3.1,2.9,3.1c1.9,0,2.9-1,2.9-3.1v-5.2c0-2.2-2.1-4.8-6.2-7.8c-4.1-2.9-6.2-6.5-6.2-10.8V177.9z"/>
		<path class="st1" d="M274.7,169h6.6v45.9h-6.6V169z"/>
		<path class="st1" d="M287.5,169h6.6l6.3,26.6V169h6.1v45.9h-6.6l-6-25.8v25.8h-6.4V169z"/>
		<path class="st1" d="M329.7,169v6.5h-6.2v39.4h-6.6v-39.4h-6.2V169H329.7z"/>
		<path class="st1" d="M333.9,169h9.6c5.9,0,8.8,3.2,8.8,9.7v6.9c0,4-1.7,6.7-5.2,8l7.4,21.4h-7.2l-6-20.2l-0.8,0.1v20.1h-6.6V169z
			 M340.6,175.6v13.1h1.5c0.9,0,1.6-0.1,1.9-0.2c1.2-0.5,1.8-1.5,1.8-2.9v-6.9c0-2.1-1-3.1-2.9-3.1H340.6z"/>
		<path class="st1" d="M358.4,169h17.2v6.5H365v13.1h9.1v6.5H365v13.1h10.5v6.5h-17.2V169z M366.8,167.3h-3.7l3.3-5.9h5.2
			L366.8,167.3z"/>
		<path class="st1" d="M380.4,169h9.6c5.9,0,8.8,3.2,8.8,9.7v6.9c0,4.7-2.1,7.8-6.3,9.2c-1,0.3-2.5,0.5-4.4,0.5h-1.1v19.7h-6.6V169z
			 M387.1,175.6v13.1h1.5c0.9,0,1.6-0.1,1.9-0.2c1.2-0.5,1.8-1.5,1.8-2.9v-6.9c0-2.1-1-3.1-2.9-3.1H387.1z"/>
		<path class="st1" d="M403.9,169h6.6v45.9h-6.6V169z"/>
		<path class="st1" d="M416.7,169h10.2c5.9,0,8.8,3.2,8.8,9.7v26.6c0,6.4-3.1,9.6-9.2,9.6h-9.8V169z M423.3,175.6v32.8h2.9
			c1.9,0,2.9-1,2.9-3.1v-26.6c0-2.1-1-3.1-2.9-3.1H423.3z"/>
		<path class="st1" d="M459.9,206c0,6.4-3.2,9.6-9.5,9.7c-6.3,0-9.5-3.2-9.5-9.7v-28.1c0-6.4,3.2-9.6,9.5-9.6c6.3,0,9.5,3.2,9.5,9.6
			V206z M453.3,177.9c0-2.1-1-3.1-2.9-3.1h0c-1.9,0-2.9,1-2.9,3.1V206c0,2.1,1,3.1,2.9,3.1c1.9,0,2.9-1,2.9-3.1V177.9z"/>
		<path class="st1" d="M465,177.9c0-6.4,3.2-9.6,9.5-9.6c6.3,0,9.5,3.2,9.5,9.6v6.2h-6.6v-6.2c0-2.1-1-3.1-2.9-3.1h0
			c-1.9,0-2.9,1-2.9,3.1v4.2c0,2,2.1,4.5,6.2,7.5c4.1,2.9,6.2,6.5,6.2,10.6v5.8c0,6.4-3.2,9.7-9.5,9.7c-6.3,0-9.5-3.2-9.5-9.7v-6.2
			h6.6v6.2c0,2.1,1,3.1,2.9,3.1c1.9,0,2.9-1,2.9-3.1v-5.2c0-2.2-2.1-4.8-6.2-7.8c-4.1-2.9-6.2-6.5-6.2-10.8V177.9z"/>
	</g>
	<g>
		<path class="st1" d="M24.6,145.9c0,8.2-4,12.3-12.1,12.3c-8.1,0-12.1-4.1-12.1-12.3v-35.7c0-8.2,4-12.3,12.1-12.3
			c8.1,0,12.1,4.1,12.1,12.3v7.9h-8.4v-7.9c0-2.6-1.2-3.9-3.7-4h-0.1c-2.4,0-3.6,1.3-3.6,4v35.7c0,2.6,1.2,4,3.7,4
			c2.5,0,3.7-1.3,3.7-4v-7.9h8.4V145.9z"/>
		<path class="st1" d="M55.1,145.9c0,8.2-4,12.3-12.1,12.3c-8.1,0-12.1-4.1-12.1-12.3v-35.7c0-8.2,4-12.3,12.1-12.3
			c8.1,0,12.1,4.1,12.1,12.3V145.9z M46.6,110.2c0-2.6-1.2-3.9-3.7-4h-0.1c-2.4,0-3.6,1.3-3.6,4v35.7c0,2.6,1.2,4,3.7,4
			c2.5,0,3.7-1.3,3.7-4V110.2z"/>
		<path class="st1" d="M62.2,98.9h12.3c7.5,0,11.2,4.1,11.2,12.3v8.8c0,5.1-2.2,8.5-6.6,10.1l9.5,27.2h-9.2l-7.6-25.7l-1.1,0.1v25.5
			h-8.4V98.9z M70.6,107.2v16.7h1.9c1.2,0,2-0.1,2.4-0.2c1.5-0.6,2.3-1.9,2.3-3.7v-8.8c0-2.7-1.2-4-3.7-4H70.6z"/>
		<path class="st1" d="M114.4,98.9v8.3h-7.9v50.1h-8.4v-50.1h-7.9v-8.3H114.4z"/>
		<path class="st1" d="M119.8,98.9h21.8v8.3h-13.4v16.7h11.5v8.3h-11.5V149h13.4v8.3h-21.8V98.9z"/>
		<path class="st1" d="M147.2,110.2c0-8.2,4-12.3,12.1-12.3c8.1,0,12.1,4.1,12.1,12.3v7.9H163v-7.9c0-2.6-1.2-3.9-3.7-4h-0.1
			c-2.4,0-3.6,1.3-3.6,4v5.3c0,2.6,2.6,5.8,7.9,9.6c5.3,3.7,7.9,8.2,7.9,13.5v7.4c0,8.2-4,12.3-12.1,12.3c-8.1,0-12.1-4.1-12.1-12.3
			v-7.9h8.4v7.9c0,2.6,1.2,4,3.7,4c2.4,0,3.7-1.3,3.7-4v-6.7c0-2.8-2.6-6.1-7.9-9.9c-5.3-3.7-7.9-8.3-7.9-13.7V110.2z"/>
		<path class="st1" d="M193.8,98.9h8.4v58.4h-8.4V98.9z"/>
		<path class="st1" d="M228.5,138.9l9.8-40h8.4v58.4h-8.1v-32.8l-7.2,32.8h-5.7l-7.4-32.8v32.8h-8.2V98.9h8.4L228.5,138.9z"/>
		<path class="st1" d="M254.4,98.9h12.3c7.5,0,11.2,4.1,11.2,12.3v8.8c0,6-2.7,9.9-8.1,11.7c-1.3,0.4-3.2,0.6-5.6,0.6h-1.4v25h-8.4
			V98.9z M262.9,107.2v16.7h1.9c1.2,0,2-0.1,2.4-0.2c1.5-0.6,2.3-1.9,2.3-3.7v-8.8c0-2.7-1.2-4-3.7-4H262.9z"/>
		<path class="st1" d="M284.2,98.9H306v8.3h-13.4v16.7h11.5v8.3h-11.5V149H306v8.3h-21.8V98.9z"/>
		<path class="st1" d="M335.8,145.9c0,8.2-4,12.3-12.1,12.3c-8.1,0-12.1-4.1-12.1-12.3v-35.7c0-8.2,4-12.3,12.1-12.3
			c8.1,0,12.1,4.1,12.1,12.3v7.9h-8.4v-7.9c0-2.6-1.2-3.9-3.7-4h-0.1c-2.4,0-3.6,1.3-3.6,4v35.7c0,2.6,1.2,4,3.7,4
			c2.5,0,3.7-1.3,3.7-4v-7.9h8.4V145.9z"/>
		<path class="st1" d="M366.2,136.5l2.7,20.7h-8.5l-1.6-12.4h-8.6l-1.7,12.4H340l2.7-20.6l6-37.8h11.5L366.2,136.5z M357.7,136.5
			l-3.2-24.3l-3.2,24.3H357.7z"/>
		<path class="st1" d="M374,98.9h13c7.5,0,11.2,4.1,11.2,12.3v8.8c0,3.8-1.5,6.5-4.6,8.1c3.1,1.6,4.6,4.3,4.6,8.1v8.8
			c0,8.2-3.9,12.2-11.8,12.3H374V98.9z M382.4,107.2v16.7h2.6c1.2,0,2-0.1,2.4-0.2c1.5-0.6,2.3-1.9,2.3-3.7v-8.8c0-2.7-1.2-4-3.7-4
			H382.4z M382.4,132.2V149h3.7c2.4,0,3.7-1.3,3.7-4v-8.8c0-1.9-0.8-3.1-2.3-3.7c-0.4-0.2-1.2-0.3-2.4-0.3H382.4z"/>
		<path class="st1" d="M405,157.3V98.9h8.4V149h13.4v8.3H405z"/>
		<path class="st1" d="M431.9,98.9h21.8v8.3h-13.4v16.7h11.5v8.3h-11.5V149h13.4v8.3h-21.8V98.9z"/>
		<path class="st1" d="M459.4,110.2c0-8.2,4-12.3,12.1-12.3c8.1,0,12.1,4.1,12.1,12.3v7.9h-8.4v-7.9c0-2.6-1.2-3.9-3.7-4h-0.1
			c-2.4,0-3.6,1.3-3.6,4v5.3c0,2.6,2.6,5.8,7.9,9.6c5.3,3.7,7.9,8.2,7.9,13.5v7.4c0,8.2-4,12.3-12.1,12.3c-8.1,0-12.1-4.1-12.1-12.3
			v-7.9h8.4v7.9c0,2.6,1.2,4,3.7,4c2.4,0,3.7-1.3,3.7-4v-6.7c0-2.8-2.6-6.1-7.9-9.9c-5.3-3.7-7.9-8.3-7.9-13.7V110.2z"/>
	</g>
	<g>
		<path class="st0" d="M69.3,214.3c1.8,0.3,2-1,0.9-1.2c-6.1-0.9-11.4-2.8-16.7-7c-1.9-1.5-3.6-3.3-5.2-5.1
			c-0.9-1.3-1.3-2.9-0.9-4.5c0.6-2.4,2.9-4,5.2-3.7c2,0.2,4.3,1.7,5.1,3.7c0.4,1,0.5,2.3,0,3.3c-1.2,2.6-4.6,1.9-4.6-1.2
			c0-0.8-1.1-1-1.2-0.2c-0.3,3.2,3.1,5.8,5.7,3.7c2.9-2.4,1.6-6.7-0.9-8.8c-3-2.6-7.4-3-9.9,0.6c-0.9,1.3-1.2,2.9-1.1,4.4
			c-2.3-2.5-4.7-5-7.5-6.8c-7.2-4.8-17.7-5.9-23.2,2.3c-4.1,6.1-1.8,14.8,4.9,17.1c0.2,0.1,0.4,0,0.5-0.2c2.5,1,5.3,1.1,7.6-0.7
			c2.5-1.9,3.8-6,2-8.9c-1.9-3-6.5-4.3-9.1-1.7c-2.3,2.2-1.7,6.9,1.7,7.1c0.5,0,0.8-0.8,0.3-1c-1.6-0.5-2.6-2.5-1.6-4.1
			c0.8-1.3,2.4-1.8,3.8-1.6c2.6,0.4,4.8,2.7,4.2,5.6c-1.1,5.4-7,5.2-10.9,3.6c-8.7-5.7-2.3-18.9,7.1-19.9c8.5-0.9,15,5.4,20.5,11.4
			C52.8,208,59.5,212.3,69.3,214.3"/>
	</g>
</g>
</svg>
